<svg width="29" height="29" viewBox="0 0 29 29" fill="none" xmlns="http://www.w3.org/2000/svg">
<path fill-rule="evenodd" clip-rule="evenodd" d="M8.51899 3.68588C10.1052 2.09964 12.2566 1.2085 14.4999 1.2085C16.7432 1.2085 18.8946 2.09964 20.4809 3.68588C22.0671 5.27213 22.9583 7.42354 22.9583 9.66683C22.9583 13.718 23.8247 16.2337 24.6232 17.6976C25.0241 18.4326 25.4145 18.9148 25.6857 19.201C25.8216 19.3445 25.9284 19.4396 25.9927 19.4932C26.0249 19.52 26.0465 19.5365 26.0558 19.5434C26.0572 19.5445 26.0584 19.5453 26.0592 19.5459C26.4924 19.8435 26.6841 20.3878 26.5314 20.892C26.3771 21.4016 25.9074 21.7502 25.3749 21.7502H3.62493C3.09246 21.7502 2.62275 21.4016 2.46845 20.892C2.31578 20.3878 2.50747 19.8435 2.94064 19.5459C2.94149 19.5453 2.94264 19.5445 2.94409 19.5434C2.9534 19.5365 2.97497 19.52 3.00714 19.4932C3.07144 19.4396 3.17824 19.3445 3.31414 19.201C3.58533 18.9148 3.97572 18.4326 4.37664 17.6976C5.17514 16.2337 6.0416 13.718 6.0416 9.66683C6.0416 7.42354 6.93274 5.27213 8.51899 3.68588ZM2.95285 19.5376C2.95295 19.5376 2.95304 19.5375 2.95314 19.5375C2.95313 19.5375 2.95313 19.5375 2.95312 19.5375L2.95285 19.5376ZM6.22203 19.3335H22.7778C22.6859 19.1828 22.5936 19.0234 22.5016 18.8548C21.4876 16.9958 20.5416 14.074 20.5416 9.66683C20.5416 8.06448 19.9051 6.52776 18.772 5.39473C17.639 4.26169 16.1023 3.62516 14.4999 3.62516C12.8976 3.62516 11.3609 4.26169 10.2278 5.39473C9.0948 6.52776 8.45826 8.06448 8.45826 9.66683C8.45826 14.074 7.51222 16.9958 6.49822 18.8548C6.40627 19.0234 6.31397 19.1828 6.22203 19.3335Z" fill="white"/>
<path fill-rule="evenodd" clip-rule="evenodd" d="M11.8034 24.3298C12.3806 23.995 13.1201 24.1915 13.4549 24.7687C13.5611 24.9518 13.7136 25.1038 13.897 25.2095C14.0805 25.3151 14.2884 25.3708 14.5001 25.3708C14.7118 25.3708 14.9198 25.3151 15.1032 25.2095C15.2866 25.1038 15.4391 24.9518 15.5453 24.7687C15.8802 24.1915 16.6196 23.995 17.1968 24.3298C17.7741 24.6647 17.9706 25.4041 17.6357 25.9813C17.3171 26.5307 16.8597 26.9867 16.3094 27.3036C15.7591 27.6206 15.1352 27.7874 14.5001 27.7874C13.8651 27.7874 13.2411 27.6206 12.6908 27.3036C12.1405 26.9867 11.6832 26.5307 11.3645 25.9813C11.0296 25.4041 11.2261 24.6647 11.8034 24.3298Z" fill="white"/>
</svg>
