<svg width="29" height="30" viewBox="0 0 29 30" fill="none" xmlns="http://www.w3.org/2000/svg">
<path fill-rule="evenodd" clip-rule="evenodd" d="M2.4165 27.5C2.4165 26.8096 2.95749 26.25 3.62484 26.25H25.3748C26.0422 26.25 26.5832 26.8096 26.5832 27.5C26.5832 28.1904 26.0422 28.75 25.3748 28.75H3.62484C2.95749 28.75 2.4165 28.1904 2.4165 27.5Z" fill="#FFF50A"/>
<path fill-rule="evenodd" clip-rule="evenodd" d="M7.24984 12.5C7.91718 12.5 8.45817 13.0596 8.45817 13.75V22.5C8.45817 23.1904 7.91718 23.75 7.24984 23.75C6.58249 23.75 6.0415 23.1904 6.0415 22.5V13.75C6.0415 13.0596 6.58249 12.5 7.24984 12.5Z" fill="#FFF50A"/>
<path fill-rule="evenodd" clip-rule="evenodd" d="M12.0833 12.5C12.7507 12.5 13.2917 13.0596 13.2917 13.75V22.5C13.2917 23.1904 12.7507 23.75 12.0833 23.75C11.416 23.75 10.875 23.1904 10.875 22.5V13.75C10.875 13.0596 11.416 12.5 12.0833 12.5Z" fill="#FFF50A"/>
<path fill-rule="evenodd" clip-rule="evenodd" d="M16.9168 12.5C17.5842 12.5 18.1252 13.0596 18.1252 13.75V22.5C18.1252 23.1904 17.5842 23.75 16.9168 23.75C16.2495 23.75 15.7085 23.1904 15.7085 22.5V13.75C15.7085 13.0596 16.2495 12.5 16.9168 12.5Z" fill="#FFF50A"/>
<path fill-rule="evenodd" clip-rule="evenodd" d="M21.7498 12.5C22.4172 12.5 22.9582 13.0596 22.9582 13.75V22.5C22.9582 23.1904 22.4172 23.75 21.7498 23.75C21.0825 23.75 20.5415 23.1904 20.5415 22.5V13.75C20.5415 13.0596 21.0825 12.5 21.7498 12.5Z" fill="#FFF50A"/>
<path fill-rule="evenodd" clip-rule="evenodd" d="M13.8597 1.44C14.2515 1.18667 14.7487 1.18667 15.1405 1.44L24.8072 7.69C25.2643 7.98555 25.4769 8.55857 25.3283 9.0946C25.1797 9.63063 24.7058 10 24.1668 10H4.83343C4.29439 10 3.82053 9.63063 3.67193 9.0946C3.52332 8.55857 3.73591 7.98555 4.19302 7.69L13.8597 1.44ZM9.04665 7.5H19.9536L14.5001 3.97406L9.04665 7.5Z" fill="#FFF50A"/>
</svg>
