<svg width="28" height="28" viewBox="0 0 28 28" fill="none" xmlns="http://www.w3.org/2000/svg">
<path d="M17.2804 8.16119C17.5576 8.99276 17.5791 9.44105 17.2804 10.1956M9.86916 7.73396V10.3838C9.86916 10.4729 9.89826 10.5595 9.952 10.6304L10.4343 11.2663C10.488 11.3372 10.5171 11.4238 10.5171 11.5129V20.1236C10.5171 20.3483 10.6985 20.5305 10.9221 20.5305H11.0031C11.2268 20.5305 11.4081 20.3483 11.4081 20.1236V11.5129C11.4081 11.4238 11.4372 11.3372 11.4909 11.2663L11.9732 10.6304C12.027 10.5595 12.0561 10.4729 12.0561 10.3838V7.73396C12.0561 7.61036 11.9563 7.51017 11.8333 7.51017C11.7103 7.51017 11.6106 7.61036 11.6106 7.73396V9.58529C11.6106 9.69765 11.5199 9.78873 11.4081 9.78873C11.2963 9.78873 11.2056 9.69765 11.2056 9.58529V7.7543C11.2056 7.61947 11.0968 7.51017 10.9626 7.51017C10.8284 7.51017 10.7196 7.61947 10.7196 7.7543V9.58529C10.7196 9.69765 10.629 9.78873 10.5171 9.78873C10.4053 9.78873 10.3146 9.69765 10.3146 9.58529V7.73396C10.3146 7.61036 10.2149 7.51017 10.0919 7.51017C9.96888 7.51017 9.86916 7.61036 9.86916 7.73396ZM16.1869 11.4279V20.1236C16.1869 20.3483 16.3682 20.5305 16.5919 20.5305H16.6729C16.8966 20.5305 17.0779 20.3483 17.0779 20.1236V11.4305C17.0779 11.3951 17.0909 11.3611 17.1145 11.3349L17.2882 11.1421C17.6481 10.7424 17.8474 10.2227 17.8474 9.68377V8.69014C17.8474 8.03846 17.3215 7.51017 16.6729 7.51017C16.0243 7.51017 15.4984 8.03846 15.4984 8.69014V9.73387C15.4984 10.2432 15.6725 10.7371 15.9915 11.133L16.1541 11.3349C16.1753 11.3612 16.1869 11.3941 16.1869 11.4279ZM5.41433 14.1831V14.3462C5.41433 19.1774 9.33079 23.0939 14.162 23.0939V23.0939C18.9932 23.0939 22.9097 19.1774 22.9097 14.3462V13.7351C22.9097 8.90394 18.9932 4.98748 14.162 4.98748V4.98748C9.33079 4.98748 5.41433 8.90394 5.41433 13.7351V14.1831ZM27 14V14C27 21.1797 21.1797 27 14 27V27C6.8203 27 1 21.1797 1 14V14C1 6.8203 6.8203 1 14 1V1C21.1797 1 27 6.8203 27 14Z" stroke="white" stroke-width="1.1"/>
</svg>
