<svg width="29" height="29" viewBox="0 0 29 29" fill="none" xmlns="http://www.w3.org/2000/svg">
<path fill-rule="evenodd" clip-rule="evenodd" d="M14.5002 3.62516C8.49407 3.62516 3.62516 8.49407 3.62516 14.5002C3.62516 20.5063 8.49407 25.3752 14.5002 25.3752C20.5063 25.3752 25.3752 20.5063 25.3752 14.5002C25.3752 8.49407 20.5063 3.62516 14.5002 3.62516ZM1.2085 14.5002C1.2085 7.15938 7.15938 1.2085 14.5002 1.2085C21.8409 1.2085 27.7918 7.15938 27.7918 14.5002C27.7918 21.8409 21.8409 27.7918 14.5002 27.7918C7.15938 27.7918 1.2085 21.8409 1.2085 14.5002Z" fill="white"/>
<path fill-rule="evenodd" clip-rule="evenodd" d="M11.5132 8.60147C11.9061 8.3912 12.3828 8.41425 12.7536 8.66144L20.0036 13.4948C20.3398 13.7189 20.5417 14.0962 20.5417 14.5002C20.5417 14.9042 20.3398 15.2815 20.0036 15.5056L12.7536 20.3389C12.3828 20.5861 11.9061 20.6091 11.5132 20.3989C11.1203 20.1886 10.875 19.7791 10.875 19.3335V9.66683C10.875 9.2212 11.1203 8.81175 11.5132 8.60147ZM13.2917 11.9246V17.0757L17.155 14.5002L13.2917 11.9246Z" fill="white"/>
</svg>
